HIERARCHY
ROOT reference
{
  OFFSET 0 0 0
  CHANNELS 6 Xposition Yposition Zposition Zrotation Xrotation Yrotation
  JOINT Hips
  {
    OFFSET 339.145 90.8604 236.464
    CHANNELS 3 Zrotation Xrotation Yrotation
    JOINT RightUpLeg
    {
      OFFSET -9.24113 -1.522 -0.0337757
      CHANNELS 3 Zrotation Xrotation Yrotation
      JOINT RightLeg
      {
        OFFSET 0.0344394 -41.8985 0.100154
        CHANNELS 3 Zrotation Xrotation Yrotation
        JOINT RightFoot
        {
          OFFSET -0.415571 -42.0751 0.023027
          CHANNELS 3 Zrotation Xrotation Yrotation
          End Site
          {
            OFFSET 0 -7.69 17.5
          }
        }
      }
    }
    JOINT LeftUpLeg
    {
      OFFSET 9.30897 -1.67379 -0.0291548
      CHANNELS 3 Zrotation Xrotation Yrotation
      JOINT LeftLeg
      {
        OFFSET 0.0832755 -41.864 -0.14338
        CHANNELS 3 Zrotation Xrotation Yrotation
        JOINT LeftFoot
        {
          OFFSET 0.17151 -41.5225 0.735469
          CHANNELS 3 Zrotation Xrotation Yrotation
          End Site
          {
            OFFSET 0 -7.69 17.5
          }
        }
      }
    }
    JOINT Spine
    {
      OFFSET 0.00853273 14.2903 0.0777264
      CHANNELS 3 Zrotation Xrotation Yrotation
      JOINT Spine1
      {
        OFFSET 0.0173944 9.71323 0.029081
        CHANNELS 3 Zrotation Xrotation Yrotation
        JOINT Spine2
        {
          OFFSET 0.0412483 10.1247 -0.0145163
          CHANNELS 3 Zrotation Xrotation Yrotation
          JOINT Spine3
          {
            OFFSET 0.0279063 9.71793 0.00755232
            CHANNELS 3 Zrotation Xrotation Yrotation
            JOINT Neck
            {
              OFFSET 0.0852486 10.3712 0.0268485
              CHANNELS 3 Zrotation Xrotation Yrotation
              JOINT Head
              {
                OFFSET 0.0739267 9.48251 0.0332551
                CHANNELS 3 Zrotation Xrotation Yrotation
                End Site
                {
                  OFFSET 0 15.95 0
                }
              }
            }
            JOINT RightShoulder
            {
              OFFSET -3.14957 6.95772 0.0300988
              CHANNELS 3 Zrotation Xrotation Yrotation
              JOINT RightArm
              {
                OFFSET -12.7513 0.0411148 0.0791701
                CHANNELS 3 Zrotation Xrotation Yrotation
                JOINT RightForeArm
                {
                  OFFSET -26.4959 0.0361336 0.259434
                  CHANNELS 3 Zrotation Xrotation Yrotation
                  JOINT RightHand
                  {
                    OFFSET -25.9829 -0.0837334 0.191464
                    CHANNELS 3 Zrotation Xrotation Yrotation
                    JOINT RightHandThumb1
                    {
                      OFFSET -2.48905 0.190105 3.12053
                      CHANNELS 3 Zrotation Xrotation Yrotation
                      JOINT RightHandThumb2
                      {
                        OFFSET -3.68274 0 0
                        CHANNELS 3 Zrotation Xrotation Yrotation
                        JOINT RightHandThumb3
                        {
                          OFFSET -2.55832 0 0
                          CHANNELS 3 Zrotation Xrotation Yrotation
                          End Site
                          {
                            OFFSET -2.194 0 0
                          }
                        }
                      }
                    }
                    JOINT RightInHandIndex
                    {
                      OFFSET -3.22368 0.508421 1.97842
                      CHANNELS 3 Zrotation Xrotation Yrotation
                      JOINT RightHandIndex1
                      {
                        OFFSET -5.21684 -0.091368 0.999158
                        CHANNELS 3 Zrotation Xrotation Yrotation
                        JOINT RightHandIndex2
                        {
                          OFFSET -3.61937 0 0
                          CHANNELS 3 Zrotation Xrotation Yrotation
                          JOINT RightHandIndex3
                          {
                            OFFSET -2.0521 0 0
                            CHANNELS 3 Zrotation Xrotation Yrotation
                            End Site
                            {
                              OFFSET -1.805 0 0
                            }
                          }
                        }
                      }
                    }
                    JOINT RightInHandMiddle
                    {
                      OFFSET -3.38211 0.517263 0.756737
                      CHANNELS 3 Zrotation Xrotation Yrotation
                      JOINT RightHandMiddle1
                      {
                        OFFSET -5.17411 -0.084 0.313895
                        CHANNELS 3 Zrotation Xrotation Yrotation
                        JOINT RightHandMiddle2
                        {
                          OFFSET -3.94947 0 0
                          CHANNELS 3 Zrotation Xrotation Yrotation
                          JOINT RightHandMiddle3
                          {
                            OFFSET -2.47579 0 0
                            CHANNELS 3 Zrotation Xrotation Yrotation
                            End Site
                            {
                              OFFSET -1.975 0 0
                            }
                          }
                        }
                      }
                    }
                    JOINT RightInHandRing
                    {
                      OFFSET -3.36516 0.537895 -0.128947
                      CHANNELS 3 Zrotation Xrotation Yrotation
                      JOINT RightHandRing1
                      {
                        OFFSET -4.63474 -0.022105 -0.478947
                        CHANNELS 3 Zrotation Xrotation Yrotation
                        JOINT RightHandRing2
                        {
                          OFFSET -3.44238 0 0
                          CHANNELS 3 Zrotation Xrotation Yrotation
                          JOINT RightHandRing3
                          {
                            OFFSET -2.3881 0 0
                            CHANNELS 3 Zrotation Xrotation Yrotation
                            End Site
                            {
                              OFFSET -1.857 0 0
                            }
                          }
                        }
                      }
                    }
                    JOINT RightInHandPinky
                    {
                      OFFSET -3.16105 0.469368 -1.20179
                      CHANNELS 3 Zrotation Xrotation Yrotation
                      JOINT RightHandPinky1
                      {
                        OFFSET -4.14105 -0.022105 -1.09053
                        CHANNELS 3 Zrotation Xrotation Yrotation
                        JOINT RightHandPinky2
                        {
                          OFFSET -2.75653 0 0
                          CHANNELS 3 Zrotation Xrotation Yrotation
                          JOINT RightHandPinky3
                          {
                            OFFSET -1.74189 0 0
                            CHANNELS 3 Zrotation Xrotation Yrotation
                            End Site
                            {
                              OFFSET -1.645 0 0
                            }
                          }
                        }
                      }
                    }
                  }
                }
              }
            }
            JOINT LeftShoulder
            {
              OFFSET 3.25273 6.91522 -0.0295735
              CHANNELS 3 Zrotation Xrotation Yrotation
              JOINT LeftArm
              {
                OFFSET 12.7785 0.0134102 -0.0213482
                CHANNELS 3 Zrotation Xrotation Yrotation
                JOINT LeftForeArm
                {
                  OFFSET 26.5044 -0.0446277 0.0404034
                  CHANNELS 3 Zrotation Xrotation Yrotation
                  JOINT LeftHand
                  {
                    OFFSET 25.9955 -0.0467726 -0.0166804
                    CHANNELS 3 Zrotation Xrotation Yrotation
                    JOINT LeftHandThumb1
                    {
                      OFFSET 2.48905 0.190105 3.12053
                      CHANNELS 3 Zrotation Xrotation Yrotation
                      JOINT LeftHandThumb2
                      {
                        OFFSET 3.68274 0 0
                        CHANNELS 3 Zrotation Xrotation Yrotation
                        JOINT LeftHandThumb3
                        {
                          OFFSET 2.55832 0 0
                          CHANNELS 3 Zrotation Xrotation Yrotation
                          End Site
                          {
                            OFFSET 2.194 0 0
                          }
                        }
                      }
                    }
                    JOINT LeftInHandIndex
                    {
                      OFFSET 3.22368 0.508421 1.97842
                      CHANNELS 3 Zrotation Xrotation Yrotation
                      JOINT LeftHandIndex1
                      {
                        OFFSET 5.21684 -0.091368 0.999158
                        CHANNELS 3 Zrotation Xrotation Yrotation
                        JOINT LeftHandIndex2
                        {
                          OFFSET 3.61937 0 0
                          CHANNELS 3 Zrotation Xrotation Yrotation
                          JOINT LeftHandIndex3
                          {
                            OFFSET 2.0521 0 0
                            CHANNELS 3 Zrotation Xrotation Yrotation
                            End Site
                            {
                              OFFSET 1.805 0 0
                            }
                          }
                        }
                      }
                    }
                    JOINT LeftInHandMiddle
                    {
                      OFFSET 3.38211 0.517263 0.756737
                      CHANNELS 3 Zrotation Xrotation Yrotation
                      JOINT LeftHandMiddle1
                      {
                        OFFSET 5.17411 -0.084 0.313895
                        CHANNELS 3 Zrotation Xrotation Yrotation
                        JOINT LeftHandMiddle2
                        {
                          OFFSET 3.94947 0 0
                          CHANNELS 3 Zrotation Xrotation Yrotation
                          JOINT LeftHandMiddle3
                          {
                            OFFSET 2.47579 0 0
                            CHANNELS 3 Zrotation Xrotation Yrotation
                            End Site
                            {
                              OFFSET 1.975 0 0
                            }
                          }
                        }
                      }
                    }
                    JOINT LeftInHandRing
                    {
                      OFFSET 3.36516 0.537895 -0.128947
                      CHANNELS 3 Zrotation Xrotation Yrotation
                      JOINT LeftHandRing1
                      {
                        OFFSET 4.63474 -0.022105 -0.478947
                        CHANNELS 3 Zrotation Xrotation Yrotation
                        JOINT LeftHandRing2
                        {
                          OFFSET 3.44238 0 0
                          CHANNELS 3 Zrotation Xrotation Yrotation
                          JOINT LeftHandRing3
                          {
                            OFFSET 2.3881 0 0
                            CHANNELS 3 Zrotation Xrotation Yrotation
                            End Site
                            {
                              OFFSET 1.857 0 0
                            }
                          }
                        }
                      }
                    }
                    JOINT LeftInHandPinky
                    {
                      OFFSET 3.16105 0.469368 -1.20179
                      CHANNELS 3 Zrotation Xrotation Yrotation
                      JOINT LeftHandPinky1
                      {
                        OFFSET 4.14105 -0.022105 -1.09053
                        CHANNELS 3 Zrotation Xrotation Yrotation
                        JOINT LeftHandPinky2
                        {
                          OFFSET 2.75653 0 0
                          CHANNELS 3 Zrotation Xrotation Yrotation
                          JOINT LeftHandPinky3
                          {
                            OFFSET 1.74189 0 0
                            CHANNELS 3 Zrotation Xrotation Yrotation
                            End Site
                            {
                              OFFSET 1.645 0 0
                            }
                          }
                        }
                      }
                    }
                  }
                }
              }
            }
          }
        }
      }
    }
  }
}
MOTION
Frames: 2
Frame Time: 0.00833333
3.000000000000000000e+02 0.000000000000000000e+00 0.000000000000000000e+00 0.000000000000000000e+00 0.000000000000000000e+00 0.000000000000000000e+00 1.109182205485848144e-01 7.017492814819116520e-02 1.407943319061500942e-01 4.452515801014969576e-02 -1.162121304082268797e-01 -1.908523424622083076e-01 -1.627850799919655644e-02 -1.670703272278996343e-02 2.507464280330810036e-01 -2.950043325136865111e-02 7.595022418815148245e-04 -1.601867756243418039e-01 9.360031514276698217e-02 -1.766837821916995288e-01 4.204824750504411457e-03 1.220745838363473945e-01 1.051658279073856977e-01 -1.164832094127910000e-01 2.823919073566320478e-02 7.519406619868153341e-02 -3.533964943210025911e-02 2.573521860712599252e-02 2.238579186904878296e-02 9.496636817566206368e-02 5.750061643568936745e-03 1.066060531407147377e-02 2.347047964820307003e-02 9.719122013013919981e-03 2.020601597840192970e-02 3.385083118433211691e-02 3.220502500039865287e-04 -9.755049673754848149e-04 -6.365499684675809044e-04 -2.419577606781904769e-02 3.636504323218252982e-02 -2.842434351293727790e-01 -1.189295874703434402e-03 -9.006979546606208586e-02 1.225124400351600001e-01 1.018257410609767349e-01 3.245809321842827670e-03 -2.879660400804814890e-01 8.739759496936390093e-01 4.183870438693198524e-01 8.610674877568778030e-01 -2.981691073700690198e-01 -2.734090574531009010e-01 -8.114206500467951999e-02 4.823863619454654694e-02 -4.402217109552224866e-02 2.807804250027757798e-01 0.000000000000000000e+00 0.000000000000000000e+00 0.000000000000000000e+00 -5.019666892341922474e-15 -1.708948266371432128e-15 0.000000000000000000e+00 -2.218459076774798129e-15 -4.179269792973704076e-15 0.000000000000000000e+00 1.354122322146119540e-15 -1.679339986359954383e-15 -1.179846507232509465e-16 0.000000000000000000e+00 0.000000000000000000e+00 0.000000000000000000e+00 0.000000000000000000e+00 -3.140707185960375658e-15 -1.683975527824736779e-15 0.000000000000000000e+00 1.437288989106735834e-15 3.322185769016009936e-16 1.354122322146119540e-15 -1.679339986359954383e-15 -1.179846507232509465e-16 0.000000000000000000e+00 -5.626000351991194424e-16 -2.937029551045198597e-16 0.000000000000000000e+00 -1.804289110503547015e-15 -1.374973365288071809e-15 0.000000000000000000e+00 -2.385514416520003561e-17 -8.795437783092382671e-16 1.354122322146119540e-15 -1.679339986359954383e-15 -1.179846507232509465e-16 0.000000000000000000e+00 0.000000000000000000e+00 0.000000000000000000e+00 0.000000000000000000e+00 -6.945571434224897135e-16 -4.888793902955857666e-16 0.000000000000000000e+00 -1.543217471145752939e-15 1.051733719827731666e-15 1.354122322146119540e-15 -1.679339986359954383e-15 -1.179846507232509465e-16 0.000000000000000000e+00 0.000000000000000000e+00 0.000000000000000000e+00 0.000000000000000000e+00 3.170970785717816771e-16 2.334200712181948061e-15 0.000000000000000000e+00 2.246855415235563260e-16 1.434858568466565501e-15 -3.463213533819921586e-01 2.619484181378665955e-02 -7.250598194541169050e-01 2.485030722882849985e-01 -6.175043925508440223e-02 1.570863589493447510e-01 5.371627253426167897e-02 -7.961492459450258963e-02 -1.232930908106842499e-01 8.214874173110807420e-02 -1.870504967061007717e-01 5.955506938496791802e-01 0.000000000000000000e+00 0.000000000000000000e+00 0.000000000000000000e+00 -3.183620641780287617e-16 -2.352937142550511603e-15 0.000000000000000000e+00 -2.005960144873319128e-15 -4.042891095561218040e-15 0.000000000000000000e+00 -7.317319761264689174e-16 -6.725593888701122953e-16 -1.086176185847156274e-15 0.000000000000000000e+00 0.000000000000000000e+00 0.000000000000000000e+00 0.000000000000000000e+00 -1.080143462649189969e-15 1.092824710100547241e-15 0.000000000000000000e+00 -4.016814567245371430e-17 1.560897213842427963e-15 -7.317319761264689174e-16 -6.725593888701122953e-16 -1.086176185847156274e-15 0.000000000000000000e+00 -8.686943932214054279e-16 1.072539600875533786e-15 0.000000000000000000e+00 6.673697410912033674e-16 3.205564631165030039e-16 0.000000000000000000e+00 -4.147665515488035628e-16 1.255514844761032219e-15 -7.317319761264689174e-16 -6.725593888701122953e-16 -1.086176185847156274e-15 0.000000000000000000e+00 0.000000000000000000e+00 0.000000000000000000e+00 0.000000000000000000e+00 -1.696176242526435290e-15 8.990864131450644176e-16 0.000000000000000000e+00 -4.681064567176941095e-16 7.498517947859305819e-16 -7.317319761264689174e-16 -6.725593888701122953e-16 -1.086176185847156274e-15 0.000000000000000000e+00 0.000000000000000000e+00 0.000000000000000000e+00 0.000000000000000000e+00 8.784479143558616296e-16 -4.600848357634133280e-16 0.000000000000000000e+00 5.623342627339862323e-16 5.168917143179600226e-16
3.000000000000000000e+02 0.000000000000000000e+00 0.000000000000000000e+00 0.000000000000000000e+00 0.000000000000000000e+00 0.000000000000000000e+00 7.523026159903245524e-02 5.245220043358561623e-02 4.560826391304481642e-02 5.080562128712718534e-02 -6.672494620608697413e-02 -9.362060762185699103e-02 -1.814811186835479928e-02 -1.548766105780990769e-03 2.627956894655366082e-01 -2.403001264657456809e-02 1.208814618052089784e-02 -1.842271380863730046e-01 7.815632323772478407e-02 -1.012180495891354670e-01 6.771854145427631810e-02 1.327900667346931241e-01 1.055362771255504151e-01 -9.058459277322618297e-02 -2.258297198474858332e-03 6.380133192611925352e-02 -6.796341940938829818e-02 1.325115329376987464e-02 1.138686071066742286e-02 1.269676229305003179e-01 2.924847238379559532e-03 6.440053208684612396e-03 3.152010502971860223e-02 5.160615137653787148e-03 1.596740589170871430e-02 4.746901217678239915e-02 4.951473575663940634e-04 -6.056914362791434529e-04 8.991516969796013638e-04 -1.601990715413295976e-02 3.945077210888230795e-02 -1.505395811920985372e-01 1.559209755228561575e-02 -6.021752038183404709e-02 4.549919158863593993e-02 7.000076638603117130e-02 1.965368712695841902e-02 -1.853084496438756612e-01 2.221415448302520024e-01 1.454974445865865607e-01 2.257478850355744138e-01 -5.257835596153696833e-02 7.126245408895005851e-02 -2.344257331744414863e-01 -2.313861480512024657e-02 -3.844374679664395306e-03 3.398237263802145192e-01 0.000000000000000000e+00 0.000000000000000000e+00 0.000000000000000000e+00 -3.843810690766729718e-15 5.557202949495116515e-16 0.000000000000000000e+00 -2.519306975345526265e-15 -2.148768640154250958e-15 0.000000000000000000e+00 -1.572227603522050603e-16 -2.443767683359562062e-15 -6.061674355215342019e-16 0.000000000000000000e+00 0.000000000000000000e+00 0.000000000000000000e+00 0.000000000000000000e+00 -4.052289647170023316e-15 -1.421748678415185068e-15 0.000000000000000000e+00 1.035039561977012664e-16 5.098034386685765315e-16 -1.572227603522050603e-16 -2.443767683359562062e-15 -6.061674355215342019e-16 0.000000000000000000e+00 -7.931018397918057758e-17 4.755512366708493854e-16 0.000000000000000000e+00 -1.615678839764189427e-15 -6.655342879066650012e-16 0.000000000000000000e+00 -5.544399184044692672e-16 -1.213516065721441464e-15 -1.572227603522050603e-16 -2.443767683359562062e-15 -6.061674355215342019e-16 0.000000000000000000e+00 0.000000000000000000e+00 0.000000000000000000e+00 0.000000000000000000e+00 -2.034049437792746372e-15 3.813757624375562560e-16 0.000000000000000000e+00 -4.828280358608797222e-16 1.127393406833808092e-15 -1.572227603522050603e-16 -2.443767683359562062e-15 -6.061674355215342019e-16 0.000000000000000000e+00 0.000000000000000000e+00 0.000000000000000000e+00 0.000000000000000000e+00 1.009150736857402293e-15 2.513488564591095535e-15 0.000000000000000000e+00 4.744358345643963671e-16 2.068876958280631469e-15 -2.432045725118402724e-01 -6.716255368550362939e-03 -4.613484035664680571e-01 2.181316258118856377e-01 5.548336416666489572e-03 -5.360889909667577308e-02 1.130696891932276987e-01 -1.505541533552233191e-01 -4.313602156773421181e-01 7.006651157066086377e-02 -3.548709966351437650e-01 1.014172206927122399e+00 0.000000000000000000e+00 0.000000000000000000e+00 0.000000000000000000e+00 1.213042312100476921e-16 -2.754825407838624733e-15 0.000000000000000000e+00 -2.057988109606288677e-15 -1.601258444481837695e-15 0.000000000000000000e+00 1.201479325968887123e-15 -1.108727162680691244e-15 -1.165708155891639917e-15 0.000000000000000000e+00 0.000000000000000000e+00 0.000000000000000000e+00 0.000000000000000000e+00 -1.639549295694232027e-15 2.177424812980588372e-15 0.000000000000000000e+00 6.825687236865249718e-17 1.578755666701452505e-15 1.201479325968887123e-15 -1.108727162680691244e-15 -1.165708155891639917e-15 0.000000000000000000e+00 1.497222559207951636e-16 9.717114030073374620e-16 0.000000000000000000e+00 1.159325192158806342e-15 1.152987425383979324e-15 0.000000000000000000e+00 -9.708050348782848743e-16 1.152349194491117097e-15 1.201479325968887123e-15 -1.108727162680691244e-15 -1.165708155891639917e-15 0.000000000000000000e+00 0.000000000000000000e+00 0.000000000000000000e+00 0.000000000000000000e+00 -1.626766784363308975e-15 8.131393467784127137e-16 0.000000000000000000e+00 -1.740924923612340959e-16 9.796076964036115092e-16 1.201479325968887123e-15 -1.108727162680691244e-15 -1.165708155891639917e-15 0.000000000000000000e+00 0.000000000000000000e+00 0.000000000000000000e+00 0.000000000000000000e+00 8.712269211305145134e-16 -3.902785162864772973e-16 0.000000000000000000e+00 4.487948253162550869e-16 1.975058253072144998e-16
